<svg width="24" height="24" xmlns="http://www.w3.org/2000/svg" xmlns:xlink="http://www.w3.org/1999/xlink"><defs><rect id="a" width="24" height="24" rx="1.17"/><linearGradient x1="50%" y1="0%" x2="50%" y2="100%" id="b"><stop stop-color="#B9A54D" offset="0%"/><stop stop-color="#9C893B" offset="100%"/></linearGradient><linearGradient x1="50%" y1="0%" x2="50%" y2="100%" id="d"><stop stop-color="#BFAF67" offset="0%"/><stop stop-color="#9C893B" offset="100%"/></linearGradient><linearGradient x1="50%" y1="0%" x2="50%" y2="100%" id="e"><stop stop-color="#84711C" offset="0%"/><stop stop-color="#9C893B" offset="100%"/></linearGradient><linearGradient x1="50%" y1="0%" x2="50%" y2="100%" id="f"><stop stop-color="#B5A356" offset="0%"/><stop stop-color="#9C893B" offset="100%"/></linearGradient><linearGradient x1="50%" y1="0%" x2="50%" y2="100%" id="g"><stop stop-color="#C0B06C" offset="0%"/><stop stop-color="#9C893B" offset="100%"/></linearGradient><linearGradient x1="50%" y1="0%" x2="50%" y2="100%" id="h"><stop stop-color="#70601C" offset="0%"/><stop stop-color="#9C893B" offset="100%"/></linearGradient><linearGradient x1="50%" y1="0%" x2="50%" y2="100%" id="i"><stop stop-color="#948543" offset="0%"/><stop stop-color="#C1AD5C" offset="100%"/></linearGradient><linearGradient x1="50%" y1="0%" x2="50%" y2="100%" id="j"><stop stop-color="#C0AA49" offset="0%"/><stop stop-color="#947C21" offset="100%"/></linearGradient><linearGradient x1="50%" y1="0%" x2="50%" y2="100%" id="k"><stop stop-color="#C9B457" offset="0%"/><stop stop-color="#BBA756" offset="100%"/></linearGradient></defs><g fill="none" fill-rule="evenodd"><mask id="c" fill="#fff"><use xlink:href="#a"/></mask><use fill="#000" fill-rule="nonzero" xlink:href="#a"/><path fill="url(#b)" mask="url(#c)" d="M0 0h8v8H0z"/><path fill="url(#d)" mask="url(#c)" d="M0 8h8v8H0z"/><path fill="url(#e)" mask="url(#c)" d="M8 0h8v8H8z"/><path fill="url(#f)" mask="url(#c)" d="M8 8h8v8H8z"/><path fill="url(#g)" mask="url(#c)" d="M16 0h8v8h-8z"/><path fill="url(#h)" mask="url(#c)" d="M16 8h8v8h-8z"/><path fill="url(#i)" mask="url(#c)" d="M0 16h8v8H0z"/><path fill="url(#j)" mask="url(#c)" d="M8 16h8v8H8z"/><path fill="url(#k)" mask="url(#c)" d="M16 16h8v8h-8z"/></g></svg>